<svg width="220" height="220" viewBox="0 0 220 220" fill="none" xmlns="http://www.w3.org/2000/svg">
<path d="M216.709 136.601C202.012 195.561 142.276 231.402 83.4006 216.704C24.4388 202.007 -11.4023 142.274 3.29559 83.3988C17.9926 24.4388 77.6419 -11.4023 136.604 3.29559C195.479 17.9067 231.407 77.6402 216.709 136.601Z" fill="#FDEFE2"/>
<path d="M162.374 96.2924C164.523 81.6831 153.437 73.7768 138.14 68.5346L143.124 48.683L131.093 45.6752L126.281 65.0112C123.101 64.2377 119.835 63.4643 116.57 62.7768L121.382 43.3549L109.351 40.3471L104.452 60.1127C101.788 59.5112 99.2103 58.9096 96.7181 58.3081V58.2221L80.0462 54.0971L76.8665 66.9877C76.8665 66.9877 85.804 69.0502 85.6322 69.1362C90.5306 70.3393 91.39 73.6049 91.2181 76.1831L85.5462 98.7846C85.89 98.8706 86.3197 98.9565 86.8353 99.2143C86.4056 99.1284 85.9759 99.0424 85.5462 98.8706L77.64 130.496C77.0384 131.957 75.4915 134.191 72.14 133.332C72.2259 133.503 63.3743 131.183 63.3743 131.183L57.3587 145.019L73.0853 148.972C76.0072 149.746 78.8431 150.433 81.679 151.207L76.6947 171.23L88.7259 174.238L93.7103 154.386C96.9759 155.246 100.242 156.105 103.335 156.878L98.4369 176.644L110.468 179.652L115.452 159.628C136.078 163.496 151.546 161.949 157.992 143.3C163.234 128.347 157.734 119.667 146.906 113.996C154.898 112.191 160.828 106.949 162.374 96.2924ZM134.788 134.964C131.093 149.917 105.827 141.839 97.6634 139.777L104.281 113.222C112.445 115.285 138.742 119.324 134.788 134.964ZM138.57 96.0346C135.132 109.699 114.163 102.738 107.374 101.019L113.39 76.9565C120.179 78.6753 142.093 81.8549 138.57 96.0346Z" fill="#F89D2E"/>
</svg>
