<svg width="24" height="24" viewBox="0 0 24 24" fill="none" xmlns="http://www.w3.org/2000/svg">
<circle cx="12" cy="12" r="12" fill="white"/>
<path d="M16.0857 9.53394L17.0932 8.82516C17.106 8.8362 17.1185 8.84749 17.1308 8.85903C17.1563 8.88294 17.1806 8.90768 17.2035 8.93315L16.5124 9.41911L12.0724 12.541C12.0548 12.5534 12.0294 12.5625 12 12.5625C11.9706 12.5625 11.9452 12.5534 11.9276 12.541L7.48759 9.41911L6.79645 8.93315C6.81942 8.90768 6.84367 8.88294 6.86918 8.85903C6.88148 8.84749 6.89402 8.8362 6.9068 8.82516L7.91431 9.53394L11.7123 12.2058L12 12.4082L12.2877 12.2058L16.0857 9.53394ZM16.78 8.625H15.798H8.202H7.21998C7.39724 8.54412 7.5952 8.5 7.8 8.5H16.2C16.4048 8.5 16.6028 8.54412 16.78 8.625ZM17.3 9.82812V9.05512C17.4312 9.24533 17.5 9.46497 17.5 9.6875V15.3125C17.5 15.6167 17.3714 15.9154 17.1308 16.141C16.8891 16.3676 16.5548 16.5 16.2 16.5H7.8C7.44518 16.5 7.11087 16.3676 6.86918 16.141C6.62858 15.9154 6.5 15.6167 6.5 15.3125V9.6875C6.5 9.46497 6.56883 9.24533 6.7 9.05512V9.82812V15.3125C6.7 15.6051 6.82427 15.8786 7.03377 16.075C7.24216 16.2704 7.5183 16.375 7.8 16.375H16.2C16.4817 16.375 16.7578 16.2704 16.9662 16.075C17.1757 15.8786 17.3 15.6051 17.3 15.3125V9.82812Z" fill="#2972FF" stroke="#2972FF"/>
</svg>
