<svg width="9" height="13" viewBox="0 0 9 13" fill="none" xmlns="http://www.w3.org/2000/svg">
<path d="M2.03132 5.03182L2.03129 5.03186C1.89053 5.17262 1.69962 5.25169 1.50056 5.25169C1.3015 5.25169 1.11059 5.17262 0.969836 5.03186C0.829079 4.8911 0.750002 4.70019 0.750002 4.50113C0.750002 4.30207 0.829079 4.11116 0.969836 3.9704L3.96919 0.971045L2.03132 5.03182ZM2.03132 5.03182L4.50014 2.56207L2.03132 5.03182ZM8.03068 5.03163C7.96101 5.10147 7.87826 5.15688 7.78715 5.19469C7.69604 5.23249 7.59837 5.25195 7.49973 5.25195C7.40108 5.25195 7.30341 5.23249 7.2123 5.19469C7.12125 5.1569 7.03853 5.10154 6.9689 5.03175L6.96896 5.03182L7.14576 4.85509L6.96878 5.03163L8.03068 5.03163ZM8.03068 5.03163L7.85368 4.85508L8.03068 5.03163ZM4.21272 0.807991C4.12171 0.845757 4.03903 0.901088 3.96942 0.970821L8.03038 3.97033C8.03033 3.97028 8.03028 3.97023 8.03023 3.97018L5.03109 0.971045C5.03106 0.97101 5.03103 0.970977 5.03099 0.970942C4.96135 0.901152 4.87863 0.845779 4.78757 0.807992C4.69646 0.770186 4.59879 0.750725 4.50014 0.750725C4.4015 0.750725 4.30383 0.770186 4.21272 0.807991Z" fill="#20AE8A" stroke="#20AE8A" stroke-width="0.5"/>
<path d="M3.96988 12.0304C4.11052 12.171 4.30127 12.25 4.50016 12.25C4.69906 12.25 4.8898 12.171 5.03044 12.0304C5.17108 11.8897 5.25009 11.699 5.25009 11.5001L5.25009 2.50133C5.25009 2.30243 5.17108 2.11169 5.03044 1.97105C4.8898 1.83041 4.69905 1.7514 4.50016 1.7514C4.30127 1.7514 4.11052 1.83041 3.96988 1.97105C3.82924 2.11169 3.75023 2.30243 3.75023 2.50133L3.75023 11.5001C3.75023 11.699 3.82924 11.8897 3.96988 12.0304Z" fill="#20AE8A" stroke="#20AE8A" stroke-width="0.5"/>
</svg>
