<svg width="119" height="136" viewBox="0 0 119 136" fill="none" xmlns="http://www.w3.org/2000/svg">
<path d="M27.7661 55.9509C21.2043 55.9509 15.8662 61.289 15.8662 67.8509V100.113C15.8662 106.675 21.2043 112.013 27.7661 112.013C34.328 112.013 39.6661 106.675 39.6661 100.113V67.8509C39.6661 61.289 34.328 55.9509 27.7661 55.9509Z" fill="#2972FF"/>
<path d="M7.93328 67.851C7.93328 66.7067 8.08428 65.6014 8.27124 64.51C3.49065 66.0551 0 70.4957 0 75.7843V92.1797C0 97.4683 3.49065 101.909 8.27124 103.454C8.08428 102.363 7.93328 101.257 7.93328 100.113V67.851Z" fill="#2972FF"/>
<path d="M91.2326 55.9509C84.6707 55.9509 79.3326 61.289 79.3326 67.8509V100.113C79.3326 106.675 84.6707 112.013 91.2326 112.013C92.4252 112.013 93.5549 111.783 94.6417 111.455C93.1651 116.35 88.6688 119.946 83.2993 119.946H70.6687C69.0257 115.339 64.664 112.013 59.4994 112.013C52.9375 112.013 47.5995 117.351 47.5995 123.913C47.5995 130.475 52.9375 135.813 59.4994 135.813C64.664 135.813 69.0257 132.486 70.6687 127.879H83.2993C94.2348 127.879 103.132 118.982 103.132 108.046V100.113V67.8509C103.132 61.289 97.7944 55.9509 91.2326 55.9509Z" fill="#2972FF"/>
<path d="M110.729 64.51C110.916 65.6014 111.067 66.7067 111.067 67.851V100.113C111.067 101.257 110.916 102.363 110.729 103.454C115.509 101.909 119 97.4683 119 92.1797V75.7843C119 70.4957 115.509 66.0551 110.729 64.51Z" fill="#2972FF"/>
<path d="M59.4996 0.417969C26.6897 0.417969 0 27.1077 0 59.9176V60.0189C2.36333 58.2297 5.09766 56.9204 8.11496 56.3341C9.96897 29.5731 32.2763 8.35125 59.4996 8.35125C86.723 8.35125 109.03 29.5731 110.884 56.3339C113.901 56.9201 116.636 58.2297 118.999 60.0186V59.9176C118.999 27.1077 92.3096 0.417969 59.4996 0.417969Z" fill="#2972FF"/>
</svg>
