<svg width="9" height="13" viewBox="0 0 9 13" fill="none" xmlns="http://www.w3.org/2000/svg">
<path d="M6.96922 7.96891L6.96926 7.96888C7.11002 7.82812 7.30092 7.74904 7.49999 7.74904C7.69905 7.74904 7.88996 7.82812 8.03071 7.96888C8.17147 8.10963 8.25055 8.30054 8.25055 8.4996C8.25055 8.69866 8.17147 8.88957 8.03071 9.03033L5.03136 12.0297L6.96922 7.96891ZM6.96922 7.96891L4.5004 10.4387L6.96922 7.96891ZM0.969873 7.9691C1.03954 7.89926 1.12229 7.84385 1.2134 7.80605C1.30451 7.76824 1.40218 7.74878 1.50082 7.74878C1.59947 7.74878 1.69714 7.76824 1.78825 7.80605C1.8793 7.84383 1.96202 7.8992 2.03165 7.96898L2.03158 7.96891L1.85479 8.14564L2.03177 7.9691L0.969873 7.9691ZM0.969873 7.9691L1.14687 8.14565L0.969873 7.9691ZM4.78783 12.1927C4.87884 12.155 4.96152 12.0996 5.03113 12.0299L0.970171 9.0304C0.97022 9.03045 0.97027 9.0305 0.97032 9.03055L3.96945 12.0297C3.96949 12.0297 3.96952 12.0298 3.96956 12.0298C4.0392 12.0996 4.12192 12.155 4.21298 12.1927C4.30409 12.2305 4.40176 12.25 4.5004 12.25C4.59905 12.25 4.69672 12.2305 4.78783 12.1927Z" fill="#F93080" stroke="#F93080" stroke-width="0.5"/>
<path d="M5.03067 0.970382C4.89003 0.829743 4.69928 0.750732 4.50039 0.750732C4.30149 0.750732 4.11075 0.829743 3.97011 0.970382C3.82947 1.11102 3.75046 1.30177 3.75046 1.50066V10.4994C3.75046 10.6983 3.82947 10.889 3.97011 11.0297C4.11075 11.1703 4.30149 11.2493 4.50039 11.2493C4.69928 11.2493 4.89003 11.1703 5.03067 11.0297C5.17131 10.889 5.25032 10.6983 5.25032 10.4994V1.50066C5.25032 1.30177 5.17131 1.11102 5.03067 0.970382Z" fill="#F93080" stroke="#F93080" stroke-width="0.5"/>
</svg>
