<svg width="24" height="24" viewBox="0 0 24 24" fill="none" xmlns="http://www.w3.org/2000/svg">
<circle cx="12" cy="12" r="12" fill="#2972FF"/>
<path d="M16.881 9.83014C16.886 9.93264 16.8873 10.0351 16.8873 10.1351C16.8873 13.2601 14.511 16.8614 10.1635 16.8614C8.87888 16.8635 7.62097 16.4946 6.54102 15.7989C6.72477 15.8214 6.91352 15.8301 7.10477 15.8301C8.21227 15.8301 9.23102 15.4539 10.0398 14.8189C9.54691 14.8092 9.06936 14.646 8.67366 14.352C8.27796 14.0581 7.98383 13.648 7.83227 13.1789C8.18621 13.2462 8.55083 13.2321 8.89852 13.1376C8.36358 13.0295 7.88251 12.7396 7.5369 12.3172C7.19129 11.8948 7.0024 11.3659 7.00227 10.8201V10.7914C7.32102 10.9676 7.68602 11.0751 8.07352 11.0876C7.57201 10.7538 7.217 10.241 7.08107 9.65406C6.94515 9.06713 7.03858 8.45046 7.34227 7.93014C7.93596 8.66014 8.67634 9.25733 9.51548 9.68303C10.3546 10.1087 11.2738 10.3535 12.2135 10.4014C12.094 9.89428 12.1455 9.3619 12.3598 8.88702C12.5741 8.41215 12.9393 8.02138 13.3986 7.77547C13.8579 7.52956 14.3856 7.4423 14.8996 7.52723C15.4137 7.61217 15.8852 7.86455 16.241 8.24514C16.77 8.14049 17.2772 7.94646 17.741 7.67139C17.5647 8.21906 17.1956 8.68411 16.7023 8.98014C17.1708 8.92371 17.6284 8.79774 18.0598 8.60639C17.7429 9.08126 17.3437 9.49569 16.881 9.83014Z" fill="white"/>
</svg>
